# xmcd
#
# Track frame offsets: 
#        150
#        56918
#        84480
#        149180
#        169004
#        207297
#
# Disc length: 3720 seconds
#
# Revision: 0
# Processed by: cddbd v1.5.2PL0 Copyright (c) Steve Scherf et al.
# Submitted via: ExactAudioCopy v0.95b4
#
DISCID=590e8606
DTITLE=Conductor Charles Munch  1948.46 - Berlioz - Symphonie Fantasti
DTITLE=que, Franck - Symphonic Variations... 
DYEAR=2005
DGENRE=Classical
TTITLE0=Berlioz - Symphonie Fantastique: Reveries - Passions
TTITLE1=Berlioz - Symphonie Fantastique: Un bal
TTITLE2=Berlioz - Symphonie Fantastique: Scene aux champs
TTITLE3=Berlioz - Symphonie Fantastique: Marche au suplice
TTITLE4=Berlioz - Symphonie Fantastique: Song d'une nuit du Sabbat
TTITLE5=Franck - Symphonic Variations for piano and orchestra 
EXTD=
EXTT0=
EXTT1=
EXTT2=
EXTT3=
EXTT4=
EXTT5=
PLAYORDER=
